<?xml version="1.0" encoding="utf-8"?>
<!-- Generator: Adobe Illustrator 26.0.1, SVG Export Plug-In . SVG Version: 6.00 Build 0)  -->
<svg version="1.1" id="Edit_design_here" xmlns="http://www.w3.org/2000/svg" xmlns:xlink="http://www.w3.org/1999/xlink" x="0px"
	 y="0px" viewBox="0 0 3897 2481" style="enable-background:new 0 0 3897 2481;" xml:space="preserve">
<style type="text/css">
	.st0{filter:url(#Adobe_OpacityMaskFilter);}
	.st1{filter:url(#Adobe_OpacityMaskFilter_00000131346334484196707670000007161041130483697805_);}
	.st2{mask:url(#SVGID_1_);fill:url(#SVGID_00000030457994442089227340000006769368431280111033_);}
	.st3{fill:url(#SVGID_00000058562964764819005020000005499563089067887528_);}
	.st4{filter:url(#Adobe_OpacityMaskFilter_00000098214404975946706600000014061068097777166263_);}
	.st5{filter:url(#Adobe_OpacityMaskFilter_00000178897040239903751070000000119499104196163499_);}
	
		.st6{mask:url(#SVGID_00000080891092130110809210000012516565478830610824_);fill:url(#SVGID_00000081642470944834053190000004798004176374021807_);}
	.st7{fill:url(#SVGID_00000010288443306429284710000003052879921112830397_);}
	.st8{filter:url(#Adobe_OpacityMaskFilter_00000161623673950675266080000008597561911997230485_);}
	.st9{filter:url(#Adobe_OpacityMaskFilter_00000139991901883769291430000008737075517573109396_);}
	
		.st10{mask:url(#SVGID_00000045580529471323844640000008887976134546426029_);fill:url(#SVGID_00000102541172461104117620000009801190584911668670_);}
	.st11{opacity:0.42;fill:url(#SVGID_00000064356078194332793370000005432431002474456476_);}
	.st12{filter:url(#Adobe_OpacityMaskFilter_00000095324662958267548390000001422764030864936637_);}
	.st13{filter:url(#Adobe_OpacityMaskFilter_00000040550211223043897190000002234529975357856932_);}
	
		.st14{mask:url(#SVGID_00000082353818488673161130000012123707595269605801_);fill:url(#SVGID_00000054944405491137121600000012969715361589097900_);}
	.st15{fill:url(#SVGID_00000021822236719009816030000014099520745522582948_);}
	.st16{filter:url(#Adobe_OpacityMaskFilter_00000060013631636647292530000015671422632660663975_);}
	.st17{filter:url(#Adobe_OpacityMaskFilter_00000168074754019112412980000000475367155766222475_);}
	
		.st18{mask:url(#SVGID_00000047045151704062936190000001807628873680926909_);fill:url(#SVGID_00000005240075562382807350000012325044944874005145_);}
	.st19{fill:url(#SVGID_00000062166561626924316510000006197178470371792268_);}
	.st20{fill:url(#SVGID_00000076562134686568536080000008920194186005576077_);}
	.st21{fill:url(#SVGID_00000011031388881137692220000018119702164554229432_);}
	.st22{fill:url(#SVGID_00000119100022835453410130000008001702487974387889_);}
	.st23{fill:url(#SVGID_00000000907075388984336350000014147528153034374322_);}
	.st24{fill:url(#SVGID_00000147179241131083268760000016968947299467650712_);}
	.st25{fill:url(#SVGID_00000142145087206724400960000003647786888023992219_);}
	.st26{fill:url(#SVGID_00000024696356445894802580000013031429967672985774_);}
	.st27{fill:url(#SVGID_00000167368692514358852820000008008333929748893841_);}
	.st28{fill:url(#SVGID_00000050632836576401178740000015044147076285888136_);}
	.st29{fill:url(#SVGID_00000001632662742009234720000016891720926448389805_);}
	.st30{fill:url(#SVGID_00000070086518849221656230000001845769276249913986_);}
	.st31{fill:url(#SVGID_00000179614206241320568280000009784041624808384958_);}
	.st32{fill:url(#SVGID_00000086679505196693679830000004812128257229062284_);}
	.st33{fill:url(#SVGID_00000176041880800393068050000006196417531602853764_);}
	.st34{fill:url(#SVGID_00000152238074853469354500000015143161962460500397_);}
	.st35{fill:url(#SVGID_00000043449994009231899890000017551467139386980753_);}
	.st36{fill:url(#SVGID_00000098181243362405031200000017766227060919313071_);}
	.st37{filter:url(#Adobe_OpacityMaskFilter_00000003821433484718446150000003140097680769174659_);}
	.st38{filter:url(#Adobe_OpacityMaskFilter_00000011009455884991919350000016763296239201394871_);}
	
		.st39{mask:url(#SVGID_00000086649303681760028730000009179456742947442826_);fill:url(#SVGID_00000116235675587965675460000001884138069777103526_);}
	.st40{opacity:0.42;fill:url(#SVGID_00000090253393200578669910000010181831294715395229_);}
	.st41{filter:url(#Adobe_OpacityMaskFilter_00000168091857687691034810000008123103141792976831_);}
	.st42{filter:url(#Adobe_OpacityMaskFilter_00000160173241658266167690000004138107064930802585_);}
	
		.st43{mask:url(#SVGID_00000045616405836676880140000006673276820392759695_);fill:url(#SVGID_00000030472332990286786580000002479992047263443895_);}
	.st44{fill:url(#SVGID_00000013166335416575302220000014857967955627664819_);}
	.st45{filter:url(#Adobe_OpacityMaskFilter_00000082350175334087875980000011507635107775335055_);}
	.st46{filter:url(#Adobe_OpacityMaskFilter_00000152946899201201236680000015694475074639339410_);}
	
		.st47{mask:url(#SVGID_00000003067755971792378240000004745238567086438817_);fill:url(#SVGID_00000058561698732655532320000007044598568048458150_);}
	.st48{fill:url(#SVGID_00000159442934288979262880000001761653819711600275_);}
</style>
<defs>
	<filter id="Adobe_OpacityMaskFilter" filterUnits="userSpaceOnUse" x="0" y="0" width="3897" height="2481">
		<feFlood  style="flood-color:white;flood-opacity:1" result="back"/>
		<feBlend  in="SourceGraphic" in2="back" mode="normal"/>
	</filter>
</defs>
<mask maskUnits="userSpaceOnUse" x="0" y="0" width="3897" height="2481" id="SVGID_1_">
	<g class="st0">
		<defs>
			
				<filter id="Adobe_OpacityMaskFilter_00000073700162304107888090000012961954016108687518_" filterUnits="userSpaceOnUse" x="0" y="0" width="3897" height="2481">
				<feFlood  style="flood-color:white;flood-opacity:1" result="back"/>
				<feBlend  in="SourceGraphic" in2="back" mode="normal"/>
			</filter>
		</defs>
		<mask maskUnits="userSpaceOnUse" x="0" y="0" width="3897" height="2481" id="SVGID_1_">
			<g style="filter:url(#Adobe_OpacityMaskFilter_00000073700162304107888090000012961954016108687518_);">
			</g>
		</mask>
		
			<linearGradient id="SVGID_00000074413304557982136520000002304553592000562328_" gradientUnits="userSpaceOnUse" x1="15.7106" y1="157.9707" x2="3918.5173" y2="2343.8801">
			<stop  offset="0" style="stop-color:#FFFFFF"/>
			<stop  offset="0.0712" style="stop-color:#FEFEFE"/>
			<stop  offset="1" style="stop-color:#F2F2F2"/>
		</linearGradient>
		
			<rect style="mask:url(#SVGID_1_);fill:url(#SVGID_00000074413304557982136520000002304553592000562328_);" width="3897" height="2481"/>
	</g>
</mask>
<linearGradient id="SVGID_00000106124329879657097100000014599276067447058858_" gradientUnits="userSpaceOnUse" x1="15.7106" y1="157.9707" x2="3918.5173" y2="2343.8801">
	<stop  offset="0" style="stop-color:#FF4FD7"/>
	<stop  offset="0.2362" style="stop-color:#BD3EB6"/>
	<stop  offset="0.507" style="stop-color:#782C93"/>
	<stop  offset="0.7338" style="stop-color:#461F7A"/>
	<stop  offset="0.9047" style="stop-color:#27176A"/>
	<stop  offset="1" style="stop-color:#1B1464"/>
</linearGradient>
<rect style="fill:url(#SVGID_00000106124329879657097100000014599276067447058858_);" width="3897" height="2481"/>
<g id="Circle_object">
	<defs>
		
			<filter id="Adobe_OpacityMaskFilter_00000036958581480009726290000009743407466642820755_" filterUnits="userSpaceOnUse" x="960.72" y="0" width="1539.84" height="1108.69">
			<feFlood  style="flood-color:white;flood-opacity:1" result="back"/>
			<feBlend  in="SourceGraphic" in2="back" mode="normal"/>
		</filter>
	</defs>
	
		<mask maskUnits="userSpaceOnUse" x="960.72" y="0" width="1539.84" height="1108.69" id="SVGID_00000017496765121565246610000010836506489619261873_">
		<g style="filter:url(#Adobe_OpacityMaskFilter_00000036958581480009726290000009743407466642820755_);">
			<defs>
				
					<filter id="Adobe_OpacityMaskFilter_00000106123504252791796140000004111105462103672960_" filterUnits="userSpaceOnUse" x="960.72" y="0" width="1539.84" height="1108.69">
					<feFlood  style="flood-color:white;flood-opacity:1" result="back"/>
					<feBlend  in="SourceGraphic" in2="back" mode="normal"/>
				</filter>
			</defs>
			
				<mask maskUnits="userSpaceOnUse" x="960.72" y="0" width="1539.84" height="1108.69" id="SVGID_00000017496765121565246610000010836506489619261873_">
				<g style="filter:url(#Adobe_OpacityMaskFilter_00000106123504252791796140000004111105462103672960_);">
				</g>
			</mask>
			
				<linearGradient id="SVGID_00000175286386388318671130000010813134318771533961_" gradientUnits="userSpaceOnUse" x1="2235.7214" y1="879.6401" x2="935.4139" y2="-440.296">
				<stop  offset="9.756100e-03" style="stop-color:#FFFFFF"/>
				<stop  offset="0.0215" style="stop-color:#FBFBFB"/>
				<stop  offset="0.3042" style="stop-color:#A3A3A3"/>
				<stop  offset="0.5529" style="stop-color:#5D5D5D"/>
				<stop  offset="0.7587" style="stop-color:#2B2B2B"/>
				<stop  offset="0.9136" style="stop-color:#0C0C0C"/>
				<stop  offset="1" style="stop-color:#000000"/>
			</linearGradient>
			
				<path style="mask:url(#SVGID_00000017496765121565246610000010836506489619261873_);fill:url(#SVGID_00000175286386388318671130000010813134318771533961_);" d="
				M2500.56,338.77c0,425.22-344.7,769.92-769.92,769.92c-268.92,0-505.62-137.85-643.31-346.75
				c-80.03-121.42-126.62-266.84-126.62-423.17c0-91.94,16.12-180.12,45.68-261.86c9.51-26.34,20.43-52.01,32.69-76.91h1383.11
				C2472.39,102.22,2500.56,217.2,2500.56,338.77z"/>
		</g>
	</mask>
	
		<linearGradient id="SVGID_00000148648706479687579620000003022614035186616209_" gradientUnits="userSpaceOnUse" x1="2235.7214" y1="879.6401" x2="935.4139" y2="-440.296">
		<stop  offset="9.756100e-03" style="stop-color:#FF4FD7"/>
		<stop  offset="0.2437" style="stop-color:#BD3EB6"/>
		<stop  offset="0.5118" style="stop-color:#782C93"/>
		<stop  offset="0.7364" style="stop-color:#461F7A"/>
		<stop  offset="0.9057" style="stop-color:#27176A"/>
		<stop  offset="1" style="stop-color:#1B1464"/>
	</linearGradient>
	<path style="fill:url(#SVGID_00000148648706479687579620000003022614035186616209_);" d="M2500.56,338.77
		c0,425.22-344.7,769.92-769.92,769.92c-268.92,0-505.62-137.85-643.31-346.75c-80.03-121.42-126.62-266.84-126.62-423.17
		c0-91.94,16.12-180.12,45.68-261.86c9.51-26.34,20.43-52.01,32.69-76.91h1383.11C2472.39,102.22,2500.56,217.2,2500.56,338.77z"/>
	<defs>
		
			<filter id="Adobe_OpacityMaskFilter_00000169551625037467602940000014513441036682186129_" filterUnits="userSpaceOnUse" x="0" y="0" width="1151.8" height="1776.65">
			<feFlood  style="flood-color:white;flood-opacity:1" result="back"/>
			<feBlend  in="SourceGraphic" in2="back" mode="normal"/>
		</filter>
	</defs>
	
		<mask maskUnits="userSpaceOnUse" x="0" y="0" width="1151.8" height="1776.65" id="SVGID_00000084527900617549243130000003176570858957518500_">
		<g style="filter:url(#Adobe_OpacityMaskFilter_00000169551625037467602940000014513441036682186129_);">
			<defs>
				
					<filter id="Adobe_OpacityMaskFilter_00000041982510775645182280000006640740753704217742_" filterUnits="userSpaceOnUse" x="0" y="0" width="1151.8" height="1776.65">
					<feFlood  style="flood-color:white;flood-opacity:1" result="back"/>
					<feBlend  in="SourceGraphic" in2="back" mode="normal"/>
				</filter>
			</defs>
			
				<mask maskUnits="userSpaceOnUse" x="0" y="0" width="1151.8" height="1776.65" id="SVGID_00000084527900617549243130000003176570858957518500_">
				<g style="filter:url(#Adobe_OpacityMaskFilter_00000041982510775645182280000006640740753704217742_);">
				</g>
			</mask>
			
				<linearGradient id="SVGID_00000083078579206629235440000001688405141851367045_" gradientUnits="userSpaceOnUse" x1="893.342" y1="1278.6667" x2="-470.2866" y2="-105.5462">
				<stop  offset="9.756100e-03" style="stop-color:#FFFFFF"/>
				<stop  offset="0.0215" style="stop-color:#FBFBFB"/>
				<stop  offset="0.3042" style="stop-color:#A3A3A3"/>
				<stop  offset="0.5529" style="stop-color:#5D5D5D"/>
				<stop  offset="0.7587" style="stop-color:#2B2B2B"/>
				<stop  offset="0.9136" style="stop-color:#0C0C0C"/>
				<stop  offset="1" style="stop-color:#000000"/>
			</linearGradient>
			
				<path style="mask:url(#SVGID_00000084527900617549243130000003176570858957518500_);fill:url(#SVGID_00000083078579206629235440000001688405141851367045_);" d="
				M1151.8,557.14c0,69.79-5.85,138.22-17.1,204.8c-14.93,88.41-39.36,173.61-72.19,254.48c-37.55,92.49-86.13,179.34-144.07,258.92
				c-30.71,42.19-64.06,82.33-99.82,120.19C610.83,1615.65,322.09,1758.54,0,1776.65V0h1017.61c12.93,25.13,24.99,50.79,36.16,76.91
				C1116.88,224.32,1151.8,386.64,1151.8,557.14z"/>
		</g>
	</mask>
	
		<linearGradient id="SVGID_00000121259088633081079240000009437957914947344275_" gradientUnits="userSpaceOnUse" x1="893.342" y1="1278.6667" x2="-470.2866" y2="-105.5462">
		<stop  offset="9.756100e-03" style="stop-color:#FF4FD7"/>
		<stop  offset="0.2437" style="stop-color:#BD3EB6"/>
		<stop  offset="0.5118" style="stop-color:#782C93"/>
		<stop  offset="0.7364" style="stop-color:#461F7A"/>
		<stop  offset="0.9057" style="stop-color:#27176A"/>
		<stop  offset="1" style="stop-color:#1B1464"/>
	</linearGradient>
	<path style="opacity:0.42;fill:url(#SVGID_00000121259088633081079240000009437957914947344275_);" d="M1151.8,557.14
		c0,69.79-5.85,138.22-17.1,204.8c-14.93,88.41-39.36,173.61-72.19,254.48c-37.55,92.49-86.13,179.34-144.07,258.92
		c-30.71,42.19-64.06,82.33-99.82,120.19C610.83,1615.65,322.09,1758.54,0,1776.65V0h1017.61c12.93,25.13,24.99,50.79,36.16,76.91
		C1116.88,224.32,1151.8,386.64,1151.8,557.14z"/>
	<defs>
		
			<filter id="Adobe_OpacityMaskFilter_00000139289656908916291630000004272349559980979339_" filterUnits="userSpaceOnUse" x="1104.44" y="0" width="1252.41" height="964.97">
			<feFlood  style="flood-color:white;flood-opacity:1" result="back"/>
			<feBlend  in="SourceGraphic" in2="back" mode="normal"/>
		</filter>
	</defs>
	
		<mask maskUnits="userSpaceOnUse" x="1104.44" y="0" width="1252.41" height="964.97" id="SVGID_00000021838509585731079220000015673286872493986180_">
		<g style="filter:url(#Adobe_OpacityMaskFilter_00000139289656908916291630000004272349559980979339_);">
			<defs>
				
					<filter id="Adobe_OpacityMaskFilter_00000135657522660669037590000008218157778862776472_" filterUnits="userSpaceOnUse" x="1104.44" y="0" width="1252.41" height="964.97">
					<feFlood  style="flood-color:white;flood-opacity:1" result="back"/>
					<feBlend  in="SourceGraphic" in2="back" mode="normal"/>
				</filter>
			</defs>
			
				<mask maskUnits="userSpaceOnUse" x="1104.44" y="0" width="1252.41" height="964.97" id="SVGID_00000021838509585731079220000015673286872493986180_">
				<g style="filter:url(#Adobe_OpacityMaskFilter_00000135657522660669037590000008218157778862776472_);">
				</g>
			</mask>
			
				<linearGradient id="SVGID_00000095335611280824227010000016938922082224592513_" gradientUnits="userSpaceOnUse" x1="2128.1101" y1="751.6533" x2="1053.1625" y2="-339.5209">
				<stop  offset="9.756100e-03" style="stop-color:#FFFFFF"/>
				<stop  offset="0.0215" style="stop-color:#FBFBFB"/>
				<stop  offset="0.3042" style="stop-color:#A3A3A3"/>
				<stop  offset="0.5529" style="stop-color:#5D5D5D"/>
				<stop  offset="0.7587" style="stop-color:#2B2B2B"/>
				<stop  offset="0.9136" style="stop-color:#0C0C0C"/>
				<stop  offset="1" style="stop-color:#000000"/>
			</linearGradient>
			
				<path style="mask:url(#SVGID_00000021838509585731079220000015673286872493986180_);fill:url(#SVGID_00000095335611280824227010000016938922082224592513_);" d="
				M2356.84,338.77c0,345.85-280.35,626.2-626.2,626.2s-626.2-280.35-626.2-626.2c0-124.81,36.53-241.1,99.45-338.77h1053.5
				C2320.32,97.67,2356.84,213.96,2356.84,338.77z"/>
		</g>
	</mask>
	
		<linearGradient id="SVGID_00000100374315080497580090000005034240739331200650_" gradientUnits="userSpaceOnUse" x1="2128.1101" y1="751.6533" x2="1053.1625" y2="-339.5209">
		<stop  offset="9.756100e-03" style="stop-color:#FF4FD7"/>
		<stop  offset="0.2437" style="stop-color:#BD3EB6"/>
		<stop  offset="0.5118" style="stop-color:#782C93"/>
		<stop  offset="0.7364" style="stop-color:#461F7A"/>
		<stop  offset="0.9057" style="stop-color:#27176A"/>
		<stop  offset="1" style="stop-color:#1B1464"/>
	</linearGradient>
	<path style="fill:url(#SVGID_00000100374315080497580090000005034240739331200650_);" d="M2356.84,338.77
		c0,345.85-280.35,626.2-626.2,626.2s-626.2-280.35-626.2-626.2c0-124.81,36.53-241.1,99.45-338.77h1053.5
		C2320.32,97.67,2356.84,213.96,2356.84,338.77z"/>
</g>
<g id="Circle_object_1_">
	<defs>
		
			<filter id="Adobe_OpacityMaskFilter_00000029733974585195538960000015494851478335064508_" filterUnits="userSpaceOnUse" x="0" y="1437.17" width="1397.66" height="1043.83">
			<feFlood  style="flood-color:white;flood-opacity:1" result="back"/>
			<feBlend  in="SourceGraphic" in2="back" mode="normal"/>
		</filter>
	</defs>
	
		<mask maskUnits="userSpaceOnUse" x="0" y="1437.17" width="1397.66" height="1043.83" id="SVGID_00000135678209618907342970000009859246467005343913_">
		<g style="filter:url(#Adobe_OpacityMaskFilter_00000029733974585195538960000015494851478335064508_);">
			<defs>
				
					<filter id="Adobe_OpacityMaskFilter_00000182487492164593599830000000325662803209299884_" filterUnits="userSpaceOnUse" x="0" y="1437.17" width="1397.66" height="1043.83">
					<feFlood  style="flood-color:white;flood-opacity:1" result="back"/>
					<feBlend  in="SourceGraphic" in2="back" mode="normal"/>
				</filter>
			</defs>
			
				<mask maskUnits="userSpaceOnUse" x="0" y="1437.17" width="1397.66" height="1043.83" id="SVGID_00000135678209618907342970000009859246467005343913_">
				<g style="filter:url(#Adobe_OpacityMaskFilter_00000182487492164593599830000000325662803209299884_);">
				</g>
			</mask>
			
				<linearGradient id="SVGID_00000034048004024336211330000017638266956506058417_" gradientUnits="userSpaceOnUse" x1="20.0661" y1="2459.9224" x2="1486.9718" y2="1536.1626">
				<stop  offset="0" style="stop-color:#FFFFFF"/>
				<stop  offset="0.0712" style="stop-color:#FEFEFE"/>
				<stop  offset="1" style="stop-color:#F2F2F2"/>
			</linearGradient>
			
				<path style="mask:url(#SVGID_00000135678209618907342970000009859246467005343913_);fill:url(#SVGID_00000034048004024336211330000017638266956506058417_);" d="
				M1397.66,2331c0,51.12-4.29,101.24-12.54,150H0v-888.39c143.45-98.08,316.94-155.44,503.84-155.44
				c118.92,0,232.39,23.22,336.16,65.39c26.83,10.88,52.99,23.04,78.45,36.4C1203.32,1688.37,1397.66,1987,1397.66,2331z"/>
		</g>
	</mask>
	
		<linearGradient id="SVGID_00000012453366861293772750000002620246394830626466_" gradientUnits="userSpaceOnUse" x1="20.0661" y1="2459.9224" x2="1486.9718" y2="1536.1626">
		<stop  offset="0" style="stop-color:#FF4FD7"/>
		<stop  offset="0.2362" style="stop-color:#BD3EB6"/>
		<stop  offset="0.507" style="stop-color:#782C93"/>
		<stop  offset="0.7338" style="stop-color:#461F7A"/>
		<stop  offset="0.9047" style="stop-color:#27176A"/>
		<stop  offset="1" style="stop-color:#1B1464"/>
	</linearGradient>
	<path style="fill:url(#SVGID_00000012453366861293772750000002620246394830626466_);" d="M1397.66,2331
		c0,51.12-4.29,101.24-12.54,150H0v-888.39c143.45-98.08,316.94-155.44,503.84-155.44c118.92,0,232.39,23.22,336.16,65.39
		c26.83,10.88,52.99,23.04,78.45,36.4C1203.32,1688.37,1397.66,1987,1397.66,2331z"/>
	
		<linearGradient id="SVGID_00000038397359531205942740000001889512464276133510_" gradientUnits="userSpaceOnUse" x1="997.0496" y1="1796.8457" x2="-126.4986" y2="2812.0493">
		<stop  offset="0.0488" style="stop-color:#ED1E79"/>
		<stop  offset="0.6463" style="stop-color:#F89D1E"/>
		<stop  offset="1" style="stop-color:#FCEE21"/>
	</linearGradient>
	<path style="fill:url(#SVGID_00000038397359531205942740000001889512464276133510_);" d="M1267.33,2347.94
		c0,45.39-4.04,89.87-11.81,133.06H0v-700.96c134.46-116.99,310.78-187.92,503.84-187.92c75,0,147.48,10.7,215.95,30.65
		c33.98,9.9,66.99,22.09,98.84,36.38C1083.25,1777.85,1267.33,2041.61,1267.33,2347.94z"/>
</g>
<g id="Line">
	<g>
		
			<linearGradient id="SVGID_00000153697717820687500450000009074822042605219210_" gradientUnits="userSpaceOnUse" x1="480.3863" y1="762.6679" x2="182.4877" y2="1031.84">
			<stop  offset="0.0488" style="stop-color:#ED1E79"/>
			<stop  offset="0.6463" style="stop-color:#F89D1E"/>
			<stop  offset="1" style="stop-color:#FCEE21"/>
		</linearGradient>
		<path style="fill:url(#SVGID_00000153697717820687500450000009074822042605219210_);" d="M331.44,1098.09
			c-110.74,0-200.84-90.1-200.84-200.84s90.1-200.84,200.84-200.84s200.84,90.1,200.84,200.84S442.18,1098.09,331.44,1098.09z
			 M331.44,701.42c-107.99,0-195.84,87.85-195.84,195.84s87.85,195.84,195.84,195.84s195.84-87.85,195.84-195.84
			S439.42,701.42,331.44,701.42z"/>
	</g>
	<g>
		
			<linearGradient id="SVGID_00000044884332371362888210000016408488988714834061_" gradientUnits="userSpaceOnUse" x1="1144.4001" y1="870.5247" x2="1031.7644" y2="972.299">
			<stop  offset="0.0488" style="stop-color:#ED1E79"/>
			<stop  offset="0.6463" style="stop-color:#F89D1E"/>
			<stop  offset="1" style="stop-color:#FCEE21"/>
		</linearGradient>
		<path style="fill:url(#SVGID_00000044884332371362888210000016408488988714834061_);" d="M1088.08,997.35
			c-41.87,0-75.94-34.07-75.94-75.94c0-41.87,34.07-75.94,75.94-75.94c41.87,0,75.94,34.07,75.94,75.94
			C1164.02,963.28,1129.95,997.35,1088.08,997.35z M1088.08,850.47c-39.12,0-70.94,31.82-70.94,70.94
			c0,39.12,31.82,70.94,70.94,70.94c39.11,0,70.94-31.82,70.94-70.94C1159.02,882.3,1127.2,850.47,1088.08,850.47z"/>
	</g>
	<g>
		
			<linearGradient id="SVGID_00000078018978805282151690000003496404988628278451_" gradientUnits="userSpaceOnUse" x1="2582.9875" y1="485.9561" x2="2511.6472" y2="550.4171">
			<stop  offset="0.0488" style="stop-color:#ED1E79"/>
			<stop  offset="0.6463" style="stop-color:#F89D1E"/>
			<stop  offset="1" style="stop-color:#FCEE21"/>
		</linearGradient>
		<path style="fill:url(#SVGID_00000078018978805282151690000003496404988628278451_);" d="M2547.32,566.28
			c-26.52,0-48.1-21.58-48.1-48.1c0-26.52,21.58-48.1,48.1-48.1s48.1,21.58,48.1,48.1C2595.41,544.71,2573.84,566.28,2547.32,566.28
			z M2547.32,475.09c-23.76,0-43.1,19.33-43.1,43.1c0,23.76,19.33,43.1,43.1,43.1s43.1-19.33,43.1-43.1
			C2590.41,494.42,2571.08,475.09,2547.32,475.09z"/>
	</g>
	<g>
		
			<linearGradient id="SVGID_00000173138640206122549920000009956916397179146624_" gradientUnits="userSpaceOnUse" x1="1444.8503" y1="1646.4192" x2="1373.51" y2="1710.8801">
			<stop  offset="0.0488" style="stop-color:#ED1E79"/>
			<stop  offset="0.6463" style="stop-color:#F89D1E"/>
			<stop  offset="1" style="stop-color:#FCEE21"/>
		</linearGradient>
		<path style="fill:url(#SVGID_00000173138640206122549920000009956916397179146624_);" d="M1409.18,1726.75
			c-26.52,0-48.1-21.58-48.1-48.1s21.58-48.1,48.1-48.1s48.1,21.58,48.1,48.1S1435.7,1726.75,1409.18,1726.75z M1409.18,1635.55
			c-23.76,0-43.1,19.33-43.1,43.1c0,23.76,19.33,43.1,43.1,43.1s43.1-19.33,43.1-43.1
			C1452.28,1654.89,1432.94,1635.55,1409.18,1635.55z"/>
	</g>
	<g>
		
			<linearGradient id="SVGID_00000080198544772705693640000000839997586379365561_" gradientUnits="userSpaceOnUse" x1="2039.5305" y1="2197.3252" x2="1978.0945" y2="2252.8369">
			<stop  offset="0.0488" style="stop-color:#ED1E79"/>
			<stop  offset="0.6463" style="stop-color:#F89D1E"/>
			<stop  offset="1" style="stop-color:#FCEE21"/>
		</linearGradient>
		<path style="fill:url(#SVGID_00000080198544772705693640000000839997586379365561_);" d="M2008.81,2266.5
			c-22.84,0-41.42-18.58-41.42-41.42s18.58-41.42,41.42-41.42s41.42,18.58,41.42,41.42S2031.65,2266.5,2008.81,2266.5z
			 M2008.81,2188.66c-20.08,0-36.42,16.34-36.42,36.42s16.34,36.42,36.42,36.42s36.42-16.34,36.42-36.42
			S2028.89,2188.66,2008.81,2188.66z"/>
	</g>
	<g>
		
			<linearGradient id="SVGID_00000133503777391221312230000007721409652751167631_" gradientUnits="userSpaceOnUse" x1="2693.8518" y1="2119.4873" x2="2632.4158" y2="2174.999">
			<stop  offset="0.0488" style="stop-color:#ED1E79"/>
			<stop  offset="0.6463" style="stop-color:#F89D1E"/>
			<stop  offset="1" style="stop-color:#FCEE21"/>
		</linearGradient>
		<path style="fill:url(#SVGID_00000133503777391221312230000007721409652751167631_);" d="M2663.13,2188.66
			c-22.84,0-41.42-18.58-41.42-41.42s18.58-41.42,41.42-41.42s41.42,18.58,41.42,41.42S2685.97,2188.66,2663.13,2188.66z
			 M2663.13,2110.82c-20.08,0-36.42,16.34-36.42,36.42s16.34,36.42,36.42,36.42s36.42-16.34,36.42-36.42
			S2683.21,2110.82,2663.13,2110.82z"/>
	</g>
	<g>
		
			<linearGradient id="SVGID_00000159463267873773427650000001108185129763932581_" gradientUnits="userSpaceOnUse" x1="3385.0652" y1="466.7247" x2="3238.1274" y2="599.4931">
			<stop  offset="0.0488" style="stop-color:#ED1E79"/>
			<stop  offset="0.6463" style="stop-color:#F89D1E"/>
			<stop  offset="1" style="stop-color:#FCEE21"/>
		</linearGradient>
		<path style="fill:url(#SVGID_00000159463267873773427650000001108185129763932581_);" d="M3311.6,632.17
			c-54.62,0-99.06-44.44-99.06-99.06c0-54.62,44.44-99.06,99.06-99.06c54.62,0,99.06,44.44,99.06,99.06
			C3410.66,587.73,3366.22,632.17,3311.6,632.17z M3311.6,439.05c-51.87,0-94.06,42.2-94.06,94.06s42.2,94.06,94.06,94.06
			c51.87,0,94.06-42.2,94.06-94.06S3363.46,439.05,3311.6,439.05z"/>
	</g>
	<g>
		
			<linearGradient id="SVGID_00000095296397557237856010000011294909994643865504_" gradientUnits="userSpaceOnUse" x1="2985.7158" y1="777.4178" x2="2880.7295" y2="872.2804">
			<stop  offset="0.0488" style="stop-color:#ED1E79"/>
			<stop  offset="0.6463" style="stop-color:#F89D1E"/>
			<stop  offset="1" style="stop-color:#FCEE21"/>
		</linearGradient>
		<path style="fill:url(#SVGID_00000095296397557237856010000011294909994643865504_);" d="M2933.22,895.63
			c-39.03,0-70.78-31.75-70.78-70.78c0-39.03,31.75-70.78,70.78-70.78s70.78,31.75,70.78,70.78
			C3004,863.88,2972.25,895.63,2933.22,895.63z M2933.22,759.07c-36.27,0-65.78,29.51-65.78,65.78c0,36.27,29.51,65.78,65.78,65.78
			s65.78-29.51,65.78-65.78C2999,788.58,2969.49,759.07,2933.22,759.07z"/>
	</g>
	<g>
		
			<linearGradient id="SVGID_00000052068158873173309040000013825209247585189261_" gradientUnits="userSpaceOnUse" x1="953.853" y1="429.5665" x2="584.228" y2="763.5483">
			<stop  offset="0.0488" style="stop-color:#ED1E79"/>
			<stop  offset="0.6463" style="stop-color:#F89D1E"/>
			<stop  offset="1" style="stop-color:#FCEE21"/>
		</linearGradient>
		<polygon style="fill:url(#SVGID_00000052068158873173309040000013825209247585189261_);" points="579.65,758.49 576.44,754.65 
			958.43,434.63 961.64,438.46 		"/>
	</g>
	<g>
		
			<linearGradient id="SVGID_00000048466781841396179900000017444598523968013213_" gradientUnits="userSpaceOnUse" x1="1018.4676" y1="1079.5592" x2="407.5186" y2="1631.594" gradientTransform="matrix(0.994 -0.1095 0.1095 0.994 -132.787 161.7402)">
			<stop  offset="0.0488" style="stop-color:#ED1E79"/>
			<stop  offset="0.6463" style="stop-color:#F89D1E"/>
			<stop  offset="1" style="stop-color:#FCEE21"/>
		</linearGradient>
		<polygon style="fill:url(#SVGID_00000048466781841396179900000017444598523968013213_);" points="434.6,1724.41 431.07,1720.87 
			1014.12,1137.82 1017.66,1141.35 		"/>
	</g>
	<g>
		
			<linearGradient id="SVGID_00000167364667958972244300000006694607492741366201_" gradientUnits="userSpaceOnUse" x1="2138.3799" y1="1239.2383" x2="1816.0597" y2="1530.4769" gradientTransform="matrix(1 0 0 1 1.0248 1.6075)">
			<stop  offset="0.0488" style="stop-color:#ED1E79"/>
			<stop  offset="0.6463" style="stop-color:#F89D1E"/>
			<stop  offset="1" style="stop-color:#FCEE21"/>
		</linearGradient>
		<polygon style="fill:url(#SVGID_00000167364667958972244300000006694607492741366201_);" points="1821.35,1536.67 
			1817.93,1533.02 2135.14,1236.26 2138.56,1239.91 		"/>
	</g>
	<g>
		
			<linearGradient id="SVGID_00000132798826463748482600000002525649555225587875_" gradientUnits="userSpaceOnUse" x1="3011.6572" y1="990.9268" x2="2689.3232" y2="1282.178" gradientTransform="matrix(0.9957 -0.0923 0.0923 0.9957 -96.8561 227.0276)">
			<stop  offset="0.0488" style="stop-color:#ED1E79"/>
			<stop  offset="0.6463" style="stop-color:#F89D1E"/>
			<stop  offset="1" style="stop-color:#FCEE21"/>
		</linearGradient>
		<polygon style="fill:url(#SVGID_00000132798826463748482600000002525649555225587875_);" points="2703.92,1259.65 
			2700.18,1256.33 2988.64,931.54 2992.38,934.86 		"/>
	</g>
	<g>
		
			<linearGradient id="SVGID_00000181059523232435627400000010514680133485266833_" gradientUnits="userSpaceOnUse" x1="1284.7616" y1="1902.9658" x2="1090.5836" y2="2078.4192" gradientTransform="matrix(0.9943 0.1067 -0.1067 0.9943 170.506 -145.7645)">
			<stop  offset="0.0488" style="stop-color:#ED1E79"/>
			<stop  offset="0.6463" style="stop-color:#F89D1E"/>
			<stop  offset="1" style="stop-color:#FCEE21"/>
		</linearGradient>
		<polygon style="fill:url(#SVGID_00000181059523232435627400000010514680133485266833_);" points="1047.36,2055.48 
			1043.83,2051.94 1230.64,1865.13 1234.18,1868.67 		"/>
	</g>
	<g>
		
			<linearGradient id="SVGID_00000085244014061602390730000003903020447951902626_" gradientUnits="userSpaceOnUse" x1="3799.6277" y1="1049.6827" x2="3284.4192" y2="1515.2094">
			<stop  offset="0.0488" style="stop-color:#ED1E79"/>
			<stop  offset="0.6463" style="stop-color:#F89D1E"/>
			<stop  offset="1" style="stop-color:#FCEE21"/>
		</linearGradient>
		<polygon style="fill:url(#SVGID_00000085244014061602390730000003903020447951902626_);" points="3313.48,1546.51 
			3309.72,1543.21 3770.57,1018.39 3774.33,1021.68 		"/>
	</g>
	<g>
		
			<linearGradient id="SVGID_00000075148859820569920520000007230298845585333934_" gradientUnits="userSpaceOnUse" x1="2349.3848" y1="244.1771" x2="1770.243" y2="767.4718">
			<stop  offset="0.0488" style="stop-color:#ED1E79"/>
			<stop  offset="0.6463" style="stop-color:#F89D1E"/>
			<stop  offset="1" style="stop-color:#FCEE21"/>
		</linearGradient>
		<polygon style="fill:url(#SVGID_00000075148859820569920520000007230298845585333934_);" points="1780.31,778.37 1776.84,774.77 
			2339.32,233.28 2342.79,236.88 		"/>
	</g>
</g>
<g id="Circle_object_2_">
	
		<linearGradient id="SVGID_00000134228131884427764880000016413287167900664708_" gradientUnits="userSpaceOnUse" x1="3054.1565" y1="1649.7141" x2="2604.7654" y2="2055.7703">
		<stop  offset="0.0488" style="stop-color:#ED1E79"/>
		<stop  offset="0.6463" style="stop-color:#F89D1E"/>
		<stop  offset="1" style="stop-color:#FCEE21"/>
	</linearGradient>
	
		<ellipse style="fill:url(#SVGID_00000134228131884427764880000016413287167900664708_);" cx="2879.98" cy="1807.1" rx="245.71" ry="243.24"/>
	<defs>
		
			<filter id="Adobe_OpacityMaskFilter_00000150083391571618547770000001693806593263867818_" filterUnits="userSpaceOnUse" x="1935.51" y="1949.51" width="1461.64" height="531.49">
			<feFlood  style="flood-color:white;flood-opacity:1" result="back"/>
			<feBlend  in="SourceGraphic" in2="back" mode="normal"/>
		</filter>
	</defs>
	
		<mask maskUnits="userSpaceOnUse" x="1935.51" y="1949.51" width="1461.64" height="531.49" id="SVGID_00000039111131086513566380000013242482439151406238_">
		<g style="filter:url(#Adobe_OpacityMaskFilter_00000150083391571618547770000001693806593263867818_);">
			<defs>
				
					<filter id="Adobe_OpacityMaskFilter_00000056414143599697919060000004247587766043578532_" filterUnits="userSpaceOnUse" x="1935.51" y="1949.51" width="1461.64" height="531.49">
					<feFlood  style="flood-color:white;flood-opacity:1" result="back"/>
					<feBlend  in="SourceGraphic" in2="back" mode="normal"/>
				</filter>
			</defs>
			
				<mask maskUnits="userSpaceOnUse" x="1935.51" y="1949.51" width="1461.64" height="531.49" id="SVGID_00000039111131086513566380000013242482439151406238_">
				<g style="filter:url(#Adobe_OpacityMaskFilter_00000056414143599697919060000004247587766043578532_);">
				</g>
			</mask>
			
				<linearGradient id="SVGID_00000017499168451245610450000008827320057840382618_" gradientUnits="userSpaceOnUse" x1="2283.0496" y1="2043.4749" x2="3276.5059" y2="3016.3391">
				<stop  offset="9.756100e-03" style="stop-color:#FFFFFF"/>
				<stop  offset="0.0215" style="stop-color:#FBFBFB"/>
				<stop  offset="0.3042" style="stop-color:#A3A3A3"/>
				<stop  offset="0.5529" style="stop-color:#5D5D5D"/>
				<stop  offset="0.7587" style="stop-color:#2B2B2B"/>
				<stop  offset="0.9136" style="stop-color:#0C0C0C"/>
				<stop  offset="1" style="stop-color:#000000"/>
			</linearGradient>
			
				<path style="mask:url(#SVGID_00000039111131086513566380000013242482439151406238_);fill:url(#SVGID_00000017499168451245610450000008827320057840382618_);" d="
				M3397.15,2478.68l-78.98,1.13l-83.64,1.19c-0.49-0.39-0.96-0.8-1.44-1.19H1935.51c92.29-282.41,344.84-497.51,659.5-526.91
				c131.07-12.24,257.52,9.18,370.81,57.16c79.89,33.84,153.22,80.89,216.99,138.69c68.74,62.25,126.37,136.98,169.14,221.06
				C3369.65,2404.56,3384.81,2440.94,3397.15,2478.68z"/>
		</g>
	</mask>
	
		<linearGradient id="SVGID_00000005246626744447573870000011276316218766131630_" gradientUnits="userSpaceOnUse" x1="2283.0496" y1="2043.4749" x2="3276.5059" y2="3016.3391">
		<stop  offset="9.756100e-03" style="stop-color:#FF4FD7"/>
		<stop  offset="0.2437" style="stop-color:#BD3EB6"/>
		<stop  offset="0.5118" style="stop-color:#782C93"/>
		<stop  offset="0.7364" style="stop-color:#461F7A"/>
		<stop  offset="0.9057" style="stop-color:#27176A"/>
		<stop  offset="1" style="stop-color:#1B1464"/>
	</linearGradient>
	<path style="opacity:0.42;fill:url(#SVGID_00000005246626744447573870000011276316218766131630_);" d="M3397.15,2478.68
		l-78.98,1.13l-83.64,1.19c-0.49-0.39-0.96-0.8-1.44-1.19H1935.51c92.29-282.41,344.84-497.51,659.5-526.91
		c131.07-12.24,257.52,9.18,370.81,57.16c79.89,33.84,153.22,80.89,216.99,138.69c68.74,62.25,126.37,136.98,169.14,221.06
		C3369.65,2404.56,3384.81,2440.94,3397.15,2478.68z"/>
	<defs>
		
			<filter id="Adobe_OpacityMaskFilter_00000075147258284823309950000009582756019396792460_" filterUnits="userSpaceOnUse" x="2864.28" y="1118.59" width="1032.72" height="1362.41">
			<feFlood  style="flood-color:white;flood-opacity:1" result="back"/>
			<feBlend  in="SourceGraphic" in2="back" mode="normal"/>
		</filter>
	</defs>
	
		<mask maskUnits="userSpaceOnUse" x="2864.28" y="1118.59" width="1032.72" height="1362.41" id="SVGID_00000098919295030761130860000011765239554419207841_">
		<g style="filter:url(#Adobe_OpacityMaskFilter_00000075147258284823309950000009582756019396792460_);">
			<defs>
				
					<filter id="Adobe_OpacityMaskFilter_00000107564877713060755610000013631827247495870852_" filterUnits="userSpaceOnUse" x="2864.28" y="1118.59" width="1032.72" height="1362.41">
					<feFlood  style="flood-color:white;flood-opacity:1" result="back"/>
					<feBlend  in="SourceGraphic" in2="back" mode="normal"/>
				</filter>
			</defs>
			
				<mask maskUnits="userSpaceOnUse" x="2864.28" y="1118.59" width="1032.72" height="1362.41" id="SVGID_00000098919295030761130860000011765239554419207841_">
				<g style="filter:url(#Adobe_OpacityMaskFilter_00000107564877713060755610000013631827247495870852_);">
				</g>
			</mask>
			
				<linearGradient id="SVGID_00000069391818150411515300000011758704303659008929_" gradientUnits="userSpaceOnUse" x1="3058.657" y1="2357.0872" x2="4365.3091" y2="1019.0461">
				<stop  offset="9.756100e-03" style="stop-color:#FFFFFF"/>
				<stop  offset="0.0489" style="stop-color:#EEEEEE"/>
				<stop  offset="0.2025" style="stop-color:#B0B0B0"/>
				<stop  offset="0.3546" style="stop-color:#7A7A7A"/>
				<stop  offset="0.5018" style="stop-color:#4E4E4E"/>
				<stop  offset="0.6428" style="stop-color:#2C2C2C"/>
				<stop  offset="0.776" style="stop-color:#141414"/>
				<stop  offset="0.8984" style="stop-color:#050505"/>
				<stop  offset="1" style="stop-color:#000000"/>
			</linearGradient>
			
				<path style="mask:url(#SVGID_00000098919295030761130860000011765239554419207841_);fill:url(#SVGID_00000069391818150411515300000011758704303659008929_);" d="
				M3897,1164.6v1315.21h-670.84l-83.64,1.19c-0.49-0.39-0.96-0.8-1.44-1.19c-139.74-116.66-237.46-281.89-267.26-469.76
				c-6.28-39.58-9.55-80.2-9.55-121.55c0-425.22,344.7-769.92,769.92-769.92c40.84,0,80.91,3.18,120.03,9.3
				C3803.52,1135.61,3851.28,1147.99,3897,1164.6z"/>
		</g>
	</mask>
	
		<linearGradient id="SVGID_00000021080294941879975800000009553549666191279284_" gradientUnits="userSpaceOnUse" x1="3058.657" y1="2357.0872" x2="4365.3091" y2="1019.0461">
		<stop  offset="9.756100e-03" style="stop-color:#FF4FD7"/>
		<stop  offset="0.1517" style="stop-color:#CA41BC"/>
		<stop  offset="0.3114" style="stop-color:#9534A2"/>
		<stop  offset="0.4684" style="stop-color:#69288B"/>
		<stop  offset="0.6187" style="stop-color:#471F7A"/>
		<stop  offset="0.761" style="stop-color:#2F196E"/>
		<stop  offset="0.8916" style="stop-color:#201567"/>
		<stop  offset="1" style="stop-color:#1B1464"/>
	</linearGradient>
	<path style="fill:url(#SVGID_00000021080294941879975800000009553549666191279284_);" d="M3897,1164.6v1315.21h-670.84l-83.64,1.19
		c-0.49-0.39-0.96-0.8-1.44-1.19c-139.74-116.66-237.46-281.89-267.26-469.76c-6.28-39.58-9.55-80.2-9.55-121.55
		c0-425.22,344.7-769.92,769.92-769.92c40.84,0,80.91,3.18,120.03,9.3C3803.52,1135.61,3851.28,1147.99,3897,1164.6z"/>
	<defs>
		
			<filter id="Adobe_OpacityMaskFilter_00000034802611787666401620000004076703369436991414_" filterUnits="userSpaceOnUse" x="3034.36" y="1263.5" width="862.64" height="1217.5">
			<feFlood  style="flood-color:white;flood-opacity:1" result="back"/>
			<feBlend  in="SourceGraphic" in2="back" mode="normal"/>
		</filter>
	</defs>
	
		<mask maskUnits="userSpaceOnUse" x="3034.36" y="1263.5" width="862.64" height="1217.5" id="SVGID_00000146482853373618858460000007436748257293556899_">
		<g style="filter:url(#Adobe_OpacityMaskFilter_00000034802611787666401620000004076703369436991414_);">
			<defs>
				
					<filter id="Adobe_OpacityMaskFilter_00000160156391973069637260000017992413433675122596_" filterUnits="userSpaceOnUse" x="3034.36" y="1263.5" width="862.64" height="1217.5">
					<feFlood  style="flood-color:white;flood-opacity:1" result="back"/>
					<feBlend  in="SourceGraphic" in2="back" mode="normal"/>
				</filter>
			</defs>
			
				<mask maskUnits="userSpaceOnUse" x="3034.36" y="1263.5" width="862.64" height="1217.5" id="SVGID_00000146482853373618858460000007436748257293556899_">
				<g style="filter:url(#Adobe_OpacityMaskFilter_00000160156391973069637260000017992413433675122596_);">
				</g>
			</mask>
			
				<linearGradient id="SVGID_00000044144140855054395270000009140743495780552581_" gradientUnits="userSpaceOnUse" x1="3040.4229" y1="2130.512" x2="4048.3838" y2="1739.1044">
				<stop  offset="9.756100e-03" style="stop-color:#FFFFFF"/>
				<stop  offset="0.0215" style="stop-color:#FBFBFB"/>
				<stop  offset="0.3042" style="stop-color:#A3A3A3"/>
				<stop  offset="0.5529" style="stop-color:#5D5D5D"/>
				<stop  offset="0.7587" style="stop-color:#2B2B2B"/>
				<stop  offset="0.9136" style="stop-color:#0C0C0C"/>
				<stop  offset="1" style="stop-color:#000000"/>
			</linearGradient>
			
				<path style="mask:url(#SVGID_00000146482853373618858460000007436748257293556899_);fill:url(#SVGID_00000044144140855054395270000009140743495780552581_);" d="
				M3897,1309.67v1160.06c-1.29,0.53-2.59,1.07-3.88,1.58c-8.56,3.43-17.21,6.65-25.93,9.69h-413.23
				c-71.47-24.97-137.03-62.52-194-110.01c-71.69-59.73-129.84-135.18-169.14-221.06c-36.26-79.25-56.46-167.37-56.46-260.23
				c0-337.55,267.07-612.71,601.42-625.73c8.21-0.31,16.49-0.47,24.78-0.47C3744.23,1263.5,3824.05,1279.9,3897,1309.67z"/>
		</g>
	</mask>
	
		<linearGradient id="SVGID_00000067925312550308219180000002114332818240983713_" gradientUnits="userSpaceOnUse" x1="3040.4229" y1="2130.512" x2="4048.3838" y2="1739.1044">
		<stop  offset="9.756100e-03" style="stop-color:#FF4FD7"/>
		<stop  offset="0.2437" style="stop-color:#BD3EB6"/>
		<stop  offset="0.5118" style="stop-color:#782C93"/>
		<stop  offset="0.7364" style="stop-color:#461F7A"/>
		<stop  offset="0.9057" style="stop-color:#27176A"/>
		<stop  offset="1" style="stop-color:#1B1464"/>
	</linearGradient>
	<path style="fill:url(#SVGID_00000067925312550308219180000002114332818240983713_);" d="M3897,1309.67v1160.06
		c-1.29,0.53-2.59,1.07-3.88,1.58c-8.56,3.43-17.21,6.65-25.93,9.69h-413.23c-71.47-24.97-137.03-62.52-194-110.01
		c-71.69-59.73-129.84-135.18-169.14-221.06c-36.26-79.25-56.46-167.37-56.46-260.23c0-337.55,267.07-612.71,601.42-625.73
		c8.21-0.31,16.49-0.47,24.78-0.47C3744.23,1263.5,3824.05,1279.9,3897,1309.67z"/>
</g>
</svg>
